<svg width="200" height="200" viewBox="0 0 200 200" fill="none" xmlns="http://www.w3.org/2000/svg">
<g clip-path="url(#clip0_34_729)">
<path d="M162.5 6.25004C162.5 2.80004 159.675 -0.0749584 156.275 0.437542C134.987 3.65004 119.525 25.5875 118.775 106.213C118.775 107.866 119.43 109.452 120.597 110.623C121.763 111.795 123.347 112.456 125 112.463C132 112.588 137.5 114.088 137.5 125V193.75C137.5 195.408 138.158 196.997 139.331 198.169C140.503 199.342 142.092 200 143.75 200H156.25C157.908 200 159.497 199.342 160.669 198.169C161.841 196.997 162.5 195.408 162.5 193.75V6.25004ZM53.1249 4.15261e-05C53.9537 4.15261e-05 54.7486 0.329282 55.3346 0.915333C55.9207 1.50138 56.2499 2.29624 56.2499 3.12504V67.15C56.24 67.5744 56.399 67.9853 56.692 68.2924C56.9851 68.5995 57.3881 68.7776 57.8124 68.7875C58.2368 68.7975 58.6477 68.6385 58.9548 68.3454C59.2619 68.0524 59.44 67.6494 59.4499 67.225L62.3624 2.97504C62.4011 2.17035 62.749 1.41167 63.3336 0.857348C63.9182 0.303026 64.6943 -0.00410907 65.4999 4.15261e-05H72.0249C72.8284 -0.000884563 73.6013 0.307687 74.1833 0.861678C74.7652 1.41567 75.1114 2.17251 75.1499 2.97504L78.0624 67.225C78.0724 67.6494 78.2505 68.0524 78.5576 68.3454C78.8647 68.6385 79.2756 68.7975 79.6999 68.7875C80.1243 68.7776 80.5273 68.5995 80.8203 68.2924C81.1133 67.9853 81.2724 67.5744 81.2624 67.15V3.12504C81.2624 2.2984 81.5899 1.50543 82.1733 0.919741C82.7566 0.334047 83.5483 0.00334809 84.3749 4.15261e-05H87.9999C89.5662 0.000771014 91.075 0.589518 92.2278 1.64974C93.3806 2.70995 94.0934 4.16436 94.2249 5.72504L99.5124 69.1C99.8899 73.613 98.8071 78.1278 96.4237 81.9786C94.0403 85.8295 90.4825 88.8124 86.2749 90.4875L85.6124 90.7625C83.4144 91.6354 81.5389 93.1647 80.2416 95.1421C78.9442 97.1194 78.288 99.4487 78.3624 101.813L80.8749 187.5C80.8749 190.719 79.5962 193.806 77.3199 196.083C75.0437 198.359 71.9565 199.638 68.7374 199.638C65.5184 199.638 62.4312 198.359 60.1549 196.083C57.8787 193.806 56.5999 190.719 56.5999 187.5L59.1249 101.813C59.1994 99.4487 58.5432 97.1194 57.2458 95.1421C55.9484 93.1647 54.073 91.6354 51.8749 90.7625L51.2124 90.4875C47.0027 88.8118 43.4433 85.8269 41.0598 81.9735C38.6762 78.1202 37.5947 73.6025 37.9749 69.0875L43.2749 5.72504C43.4065 4.16436 44.1192 2.70995 45.272 1.64974C46.4249 0.589518 47.9337 0.000771014 49.4999 4.15261e-05H53.1249Z" fill="#F8F7F4"/>
</g>
<defs>
<clipPath id="clip0_34_729">
<rect width="200" height="200" fill="white"/>
</clipPath>
</defs>
</svg>
